<?xml version="1.0" encoding="UTF-8"?>
<svg id="Layer_2" data-name="Layer 2" xmlns="http://www.w3.org/2000/svg" viewBox="0 0 220.66 219.78">
  <defs>
    <style>
      .cls-1 {
        fill: #231f20;
      }

      .cls-2 {
        fill: #2e3192;
      }
    </style>
  </defs>
  <g id="Layer_1-2" data-name="Layer 1">
    <g>
      <path class="cls-2" d="M219.85,121.66l-2.59,14.62c-.33,1.92-2.15,3.18-4.06,2.85l-8.04-1.43c-1.05,4.11-2.38,8.13-3.95,12.03l6.73,3.88c1.66.96,2.24,3.11,1.28,4.79l-5.56,9.62-20.88-29.06c2.8-7.97,4.32-16.52,4.32-25.44,0-42.4-34.39-76.76-76.76-76.76S33.57,71.13,33.57,113.53c0,12.94,3.2,25.11,8.85,35.81,6.33,12.01,15.77,22.15,27.26,29.29,11.8,7.38,25.72,11.66,40.65,11.66,11.56,0,22.52-2.57,32.35-7.17l12.4,17.38s-.07.05-.12.07l2.01,5.54c.65,1.82-.28,3.83-2.1,4.51l-13.95,5.07c-1.82.65-3.83-.28-4.49-2.1l-1.92-5.23c-4.32,1.1-8.76,1.89-13.27,2.38v5.54c0,1.94-1.57,3.5-3.5,3.5h-14.86c-1.94,0-3.5-1.57-3.5-3.5v-5.54c-4.53-.49-8.95-1.28-13.27-2.38l-1.92,5.23c-.65,1.82-2.66,2.76-4.49,2.1l-13.97-5.07c-1.82-.68-2.76-2.69-2.1-4.51l2.03-5.54c-2.83-1.45-5.58-3.04-8.25-4.77l-8.48,11.91H0l26.93-37.07-3.27,1.89c-1.68.98-3.83.4-4.79-1.28l-7.43-12.85c-.96-1.68-.4-3.83,1.28-4.79l6.7-3.88c-1.54-3.9-2.87-7.92-3.92-12.03l-8.06,1.43c-1.89.33-3.71-.93-4.06-2.85l-2.57-14.62c-.33-1.92.93-3.74,2.85-4.06l8.88-1.57c0-.84-.05-1.66-.05-2.5,0-3.27.16-6.52.47-9.72l-9.3-1.64c-1.92-.33-3.18-2.15-2.85-4.06l2.57-14.62c.35-1.92,2.17-3.18,4.06-2.85l10.12,1.8c1.26-3.76,2.71-7.41,4.39-10.93l-9.23-5.35c-1.68-.96-2.24-3.11-1.28-4.79l7.43-12.85c.96-1.68,3.11-2.27,4.79-1.28l9.88,5.7c2.36-2.99,4.88-5.84,7.57-8.53l-7.55-8.99c-1.24-1.47-1.05-3.69.44-4.93l11.38-9.55c1.47-1.24,3.69-1.05,4.93.44l7.87,9.39c3.13-1.99,6.38-3.81,9.72-5.42l-4.25-11.68c-.65-1.82.28-3.83,2.1-4.51l13.97-5.07c1.82-.65,3.83.28,4.49,2.1l4.37,11.96c3.53-.79,7.15-1.42,10.82-1.82V3.5c0-1.94,1.57-3.5,3.5-3.5h14.86c1.94,0,3.5,1.57,3.5,3.5v12.82c3.67.4,7.27,1.03,10.82,1.82l4.37-11.96c.65-1.82,2.66-2.76,4.49-2.1l13.95,5.07c1.82.68,2.76,2.69,2.1,4.51l-4.25,11.68c3.36,1.61,6.59,3.43,9.72,5.42l7.9-9.39c1.24-1.49,3.43-1.68,4.93-.44l11.38,9.55c1.49,1.24,1.68,3.46.44,4.93l-7.55,8.99c2.69,2.69,5.19,5.54,7.55,8.53l9.9-5.7c1.66-.98,3.81-.4,4.79,1.28l7.43,12.85c.96,1.68.37,3.83-1.28,4.79l-9.25,5.35c1.68,3.53,3.15,7.17,4.39,10.93l10.12-1.8c1.92-.33,3.74.93,4.06,2.85l2.59,14.62c.33,1.92-.96,3.74-2.85,4.06l-9.32,1.64c.33,3.2.49,6.45.49,9.72,0,.84-.05,1.66-.07,2.5l8.9,1.57c1.89.33,3.18,2.15,2.85,4.06Z"/>
      <path class="cls-1" d="M220.66,207.72h-48.96l-8.48-11.91-12.24-17.17-6.33-8.88-6.84-9.6-23.15-32.47c-2.1-2.97-6.54-2.97-8.64,0l-23.15,32.47-6.84,9.6c-11.66-7.12-20.93-17.78-26.33-30.46l8.43-11.59,28.55-39.29.56-.77c11.66-16.05,35.62-16,47.23.12l28.27,39.32,8.43,11.75,7.27,10.12,15.82,22.01,26.42,36.77Z"/>
    </g>
  </g>
</svg>